<svg role="img" viewBox="0 0 16 16" xmlns="http://www.w3.org/2000/svg" id="Flask--Streamline-Simple-Icons" height="16" width="16">
  <desc>
    Flask Streamline Icon: https://streamlinehq.com
  </desc>
  <title>Flask</title>
  <path d="M4.7813333333333325 13.573333333333332c-0.6093333333333333 -0.48 -1.2599999999999998 -0.94 -1.704 -1.5866666666666664 -0.9346666666666665 -1.1413333333333333 -1.6546666666666667 -2.4626666666666663 -2.1466666666666665 -3.8513333333333333 -0.29733333333333334 -0.9033333333333333 -0.39999999999999997 -1.8719999999999999 -0.7826666666666666 -2.74 -0.4013333333333333 -0.6293333333333333 0.06866666666666665 -1.3186666666666667 0.7586666666666666 -1.5199999999999998 0.30666666666666664 -0.057999999999999996 0.848 -0.348 0.1953333333333333 -0.14066666666666666 -0.5853333333333333 0.42933333333333334 -0.6419999999999999 -0.38999999999999996 -0.041999999999999996 -0.44133333333333336 0.41 -0.05466666666666667 0.5599999999999999 -0.38999999999999996 0.42 -0.6913333333333332 -0.44 -0.2866666666666666 1.0666666666666667 -0.602 0.30866666666666664 -1.0293333333333332C1 0.72 2.893333333333333 0.5566666666666666 2.4266666666666667 1.5233333333333334 2.3153333333333332 2.2666666666666666 3.749333333333333 1.3866666666666667 3.4166666666666665 2.245333333333333c0.33799999999999997 0.4126666666666666 1.2666666666666666 0.09333333333333334 1.2433333333333332 0.6726666666666665 0.4933333333333333 0.03333333333333333 0.6619999999999999 0.448 1.1246666666666667 0.48 0.48 0.21666666666666667 1.3479999999999999 0.3866666666666666 1.5106666666666666 0.9266666666666665 -0.4753333333333333 0.3773333333333333 -1.5759999999999998 -0.7766666666666666 -1.6286666666666667 0.2653333333333333 0.1433333333333333 1.54 0.10666666666666666 3.126 0.6693333333333333 4.592 0.26666666666666666 0.888 0.9133333333333333 1.5866666666666664 1.496 2.2786666666666666 0.5579999999999999 0.6773333333333333 1.314 1.1533333333333333 2.0846666666666662 1.5553333333333335 0.6759999999999999 0.31866666666666665 1.4046666666666667 0.53 2.142 0.6626666666666666 0.29866666666666664 -0.22866666666666668 0.8266666666666667 -1.0779999999999998 1.2919999999999998 -0.72 0.022 0.4026666666666666 -0.9253333333333332 0.8419999999999999 -0.04466666666666667 0.7973333333333332 0.5173333333333333 -0.156 0.876 0.39999999999999997 1.302 -0.10133333333333333 0.39199999999999996 0.4646666666666666 1.6306666666666667 -0.29733333333333334 1.3513333333333333 0.6533333333333333 -0.3773333333333333 0.24266666666666664 -0.9279999999999999 0.09599999999999999 -1.306 0.43066666666666664 -0.6233333333333333 -0.31133333333333335 -1.1199999999999999 0.2786666666666666 -1.8099999999999998 0.204a13.239999999999998 13.239999999999998 0 0 1 -2.3226666666666667 0.1933333333333333c-1.2746666666666666 -0.09999999999999999 -2.5766666666666667 -0.14266666666666666 -3.7893333333333334 -0.5866666666666667 -0.6826666666666666 -0.19799999999999998 -1.3486666666666667 -0.5873333333333333 -1.9493333333333331 -0.976zm1.0766666666666667 0.4666666666666666c0.6666666666666666 0.288 1.3186666666666667 0.592 2.0493333333333332 0.6839999999999999 1.16 0.15999999999999998 2.3579999999999997 0.4093333333333333 3.5220000000000002 0.18266666666666667 -0.5266666666666666 -0.238 -1.072 0.09333333333333334 -1.5966666666666667 -0.16999999999999998 -0.6293333333333333 0.13533333333333333 -1.3046666666666666 -0.034666666666666665 -1.9446666666666665 -0.118 -0.728 -0.32399999999999995 -1.5133333333333332 -0.5466666666666666 -2.194 -0.968 -0.8513333333333333 -0.31066666666666665 0.44 0.3986666666666666 0.6699999999999999 0.45666666666666667 0.532 0.302 -0.5846666666666667 -0.15533333333333332 -0.7426666666666667 -0.2806666666666666 -0.44533333333333336 -0.25 -0.5026666666666666 -0.19799999999999998 -0.044 0.056 0.09266666666666667 0.05333333333333333 0.184 0.11066666666666666 0.27999999999999997 0.15666666666666665zm-1.2693333333333332 -0.8973333333333333c0.6466666666666666 0.23933333333333331 -0.0026666666666666666 -0.45466666666666666 -0.3 -0.41466666666666663 -0.13066666666666665 -0.22733333333333333 -0.5006666666666666 -0.37133333333333335 -0.24 -0.4933333333333333 -0.46933333333333327 0.16266666666666665 -0.4913333333333333 -0.62 -0.7133333333333334 -0.5086666666666666 -0.496 -0.15666666666666665 -0.1933333333333333 -0.7133333333333334 -0.7839999999999999 -1.0533333333333332 -0.054 -0.36 -0.588 -0.6719999999999999 -0.7586666666666666 -1.2146666666666666 -0.07533333333333334 -0.2773333333333333 -0.6033333333333333 -1.0753333333333333 -0.2786666666666666 -0.3333333333333333 0.27599999999999997 0.7146666666666667 0.762 1.3266666666666667 1.1666666666666665 1.938 0.3133333333333333 0.582 0.6846666666666665 1.1906666666666665 1.2566666666666666 1.5533333333333332 0.1933333333333333 0.18533333333333335 0.3786666666666666 0.4686666666666666 0.6513333333333333 0.5266666666666666zM2.7266666666666666 11.097999999999999c0.022 -0.09733333333333333 0.118 0.21133333333333332 0 0zm2.636 2.3313333333333333c0.1433333333333333 -0.064 -0.20666666666666667 -0.07999999999999999 0 0zm0.3506666666666667 0.128c-0.036 -0.17666666666666667 -0.15999999999999998 0.09866666666666665 0 0zm0.44 0.18333333333333335c0.208 -0.19999999999999998 -0.32266666666666666 -0.12533333333333332 0 0zm0.7513333333333333 0.42c0.12733333333333333 -0.18799999999999997 -0.4066666666666666 -0.07133333333333333 0 0zM5.459999999999999 13.152000000000001c0.32466666666666666 -0.21 -0.42 -0.0026666666666666666 0 0zm0.3293333333333333 0.16399999999999998c-0.009333333333333332 -0.11066666666666666 -0.11733333333333332 0.049999999999999996 0 0zm1.6466666666666667 1.028c0.26466666666666666 0.16666666666666666 1.5466666666666664 0.3666666666666667 0.7433333333333333 0.06866666666666665 -0.13333333333333333 0.028 -1.4866666666666666 -0.3826666666666666 -0.744 -0.06866666666666665zm-2.614 -2.0359999999999996c-0.026666666666666665 -0.11133333333333334 -0.4106666666666666 -0.12333333333333332 0 0zm0.7666666666666666 0.44666666666666666c0.19999999999999998 -0.13999999999999999 -0.414 -0.10666666666666666 0 0zm0.6439999999999999 0.3953333333333333c0.2866666666666666 -0.108 -0.46399999999999997 -0.10866666666666666 0 0zm-1.7226666666666666 -1.182c0.31066666666666665 0.23866666666666664 1.2533333333333332 0.030666666666666665 0.476 -0.142 -0.35333333333333333 -0.18866666666666665 -1.1513333333333333 -0.3173333333333333 -0.608 0.11333333333333334zm2.16 1.3186666666666667c0.12866666666666665 -0.22 -0.5433333333333332 -0.12666666666666665 0 0zm-0.6559999999999999 -0.522c0.7599999999999999 0.21533333333333332 -0.6386666666666666 -0.48 -0.18733333333333335 -0.07866666666666666l0.09999999999999999 0.04533333333333334 0.08666666666666667 0.03333333333333333zm1.3153333333333332 0.7599999999999999c0.72 0.006666666666666666 -0.6499999999999999 -0.09799999999999999 0 0zm-3.096 -1.9733333333333332c-0.028 -0.13333333333333333 -0.17733333333333334 0.011999999999999999 0 0zm4.313333333333333 2.6566666666666663c0.018666666666666665 -0.242 -0.2353333333333333 0.18 0 0zm-3.0866666666666664 -1.904c-0.042666666666666665 -0.12733333333333333 -0.224 -0.005333333333333333 0 0zm-1.1586666666666665 -0.836c0.41333333333333333 -0.024666666666666663 -0.5653333333333332 -0.182 0 0zm-1.3733333333333333 -0.888c-0.05133333333333333 -0.19799999999999998 -0.44933333333333336 -0.356 0 0zm3.6046666666666667 2.29c-0.076 -0.08666666666666667 -0.036 0.018666666666666665 0 0zm2.2439999999999998 1.3766666666666665c-0.006666666666666666 -0.13133333333333333 -0.122 0.049999999999999996 0 0zm-2.4426666666666668 -1.582c0.039999999999999994 -0.16999999999999998 -0.352 -0.05133333333333333 0 0zm-1.6706666666666665 -1.0613333333333332c0.30666666666666664 -0.03333333333333333 -0.4933333333333333 -0.20733333333333331 0 0zm2.827333333333333 1.758c0.47866666666666663 -0.18999999999999997 -0.4666666666666666 -0.09333333333333334 0 0zM6.02 12.363333333333333c0.5513333333333332 0.07066666666666666 -0.6566666666666666 -0.3753333333333333 -0.12066666666666666 -0.039999999999999994zm1.9173333333333331 1.1786666666666665c0.5153333333333333 -0.308 0.3453333333333333 0.7213333333333334 0.8739999999999999 0.08666666666666667 0.5213333333333333 -0.37999999999999995 -0.45 0.47133333333333327 0.1933333333333333 0.06866666666666665 0.46399999999999997 -0.31133333333333335 1.1506666666666665 0.14666666666666667 1.5839999999999999 0.29666666666666663 0.312 -0.015333333333333332 0.6153333333333333 0.27 0.9353333333333333 0.09666666666666665 0.6153333333333333 -0.16666666666666666 -1.204 -0.24666666666666665 -0.7266666666666667 -0.54 -0.5633333333333332 0.16333333333333333 -0.98 -0.19599999999999998 -1.2566666666666666 -0.5566666666666666 -0.6319999999999999 -0.14666666666666667 -1.3626666666666667 -0.4686666666666666 -1.678 -1.028 -0.128 -0.21 0.18666666666666668 0.02933333333333333 -0.11066666666666666 -0.3133333333333333 -0.37999999999999995 -0.33866666666666667 -0.5706666666666667 -0.7233333333333333 -0.8266666666666667 -1.1346666666666665 -0.30466666666666664 -0.16266666666666665 -0.33999999999999997 -0.6419999999999999 -0.37133333333333335 -0.016 0.0026666666666666666 -0.3953333333333333 -0.3686666666666667 -0.6613333333333333 -0.4586666666666666 -0.5506666666666666 -0.0013333333333333333 -0.3806666666666666 0.3966666666666666 -0.18999999999999997 0.11733333333333332 -0.47133333333333327 -0.06 -0.3946666666666666 -0.2573333333333333 -0.8066666666666666 -0.31666666666666665 -1.2513333333333332 -0.092 -0.21466666666666667 -0.013333333333333332 -0.6739999999999999 -0.3153333333333333 -0.18799999999999997 -0.11 0.5133333333333333 -0.03666666666666667 -0.6313333333333333 0.13466666666666666 -0.2533333333333333 0.22466666666666668 -0.3866666666666666 -0.07999999999999999 -0.33999999999999997 -0.09333333333333334 -0.2866666666666666 0.14666666666666667 -0.3253333333333333 0.09333333333333334 -0.7866666666666666 -0.038 -0.6106666666666667 0.078 -0.3446666666666667 0.12333333333333332 -1.2679999999999998 -0.11666666666666665 -1.1039999999999999 0.14533333333333331 -0.36 0.27599999999999997 -1.6486666666666665 -0.356 -1.1573333333333333 -0.256 0.003333333333333333 -0.6986666666666667 0.09333333333333334 -0.9086666666666666 0.1973333333333333 0.6573333333333333 0.362 -0.06666666666666667 0.13066666666666665 -0.3333333333333333 0.07333333333333333 -0.034666666666666665 0.33466666666666667 -0.3 0.18999999999999997 -0.6306666666666666 0.1933333333333333 0.5286666666666666 0.06533333333333333 -0.2573333333333333 0.54 -0.5606666666666666 0.356 -0.3933333333333333 0.18799999999999997 0.33999999999999997 0.6579999999999999 0.008 0.8033333333333333 0.039999999999999994 0.21866666666666668 -0.6033333333333333 -0.07999999999999999 -0.5533333333333332 0.42666666666666664 -0.38199999999999995 -0.16066666666666665 -0.052 0.6 0.1393333333333333 0.3426666666666667 0.6499999999999999 0.176 0.45733333333333337 0.5773333333333333 0.4733333333333333 0.958 -0.10533333333333333 0.222 -0.5226666666666666 -0.522 -0.09333333333333334 -0.4873333333333333 -0.33799999999999997 -0.5513333333333332 -0.374 -0.19999999999999998 -0.6559999999999999 0.05666666666666667 -0.06666666666666667 0.018666666666666665 0.7193333333333333 0.3646666666666667 0.22666666666666668 0.5353333333333333 0.43333333333333335 0.06666666666666667 0.44533333333333336 0.44666666666666666 0.5333333333333333 0.6866666666666666 0.26 0.2713333333333333 0.20666666666666667 -0.3 0.5193333333333333 0.026666666666666665 -0.1973333333333333 -0.29066666666666663 -1.0446666666666666 -0.8186666666666667 -0.3626666666666667 -0.6493333333333333 -0.003333333333333333 -0.29333333333333333 -0.12333333333333332 -0.5286666666666666 0.086 -0.5226666666666666 0.20666666666666667 -0.3746666666666667 -0.21666666666666667 0.9246666666666666 0.25 0.448 0.12866666666666665 -0.05666666666666667 0.15999999999999998 -0.3753333333333333 0.3933333333333333 0.03 0.33666666666666667 0.33199999999999996 0.12133333333333332 0.572 -0.354 0.26866666666666666 0.08466666666666667 0.2886666666666666 0.6359999999999999 0.3913333333333333 0.5326666666666666 0.8433333333333333 0.11 0.3966666666666666 0.2633333333333333 0.25066666666666665 0.3973333333333333 0.228 0.10533333333333333 0.3853333333333333 0.16466666666666666 0.102 0.16999999999999998 -0.08199999999999999 0.48 0.10333333333333333 0.368 0.3866666666666666 0.5186666666666666 0.5866666666666667 0.3313333333333333 0.14933333333333332 -0.4746666666666666 -1.0146666666666666 0.09466666666666665 -0.3506666666666667 0.5986666666666667 0.54 0.22466666666666668 0.7666666666666666 -0.3133333333333333 0.6799999999999999 0.33999999999999997 -0.027333333333333334 0.45 0.45999999999999996 0.8753333333333333 0.44266666666666665 0.38799999999999996 0.18466666666666667 0.6499999999999999 0.8933333333333333 -0.018 0.598 -0.23199999999999998 -0.20866666666666667 -1.0533333333333332 -0.4666666666666666 -0.38199999999999995 -0.06933333333333333 0.6193333333333333 0.2866666666666666 1.1099999999999999 0.4586666666666666 1.7073333333333331 0.8180000000000001 0.42666666666666664 0.30533333333333335 0.612 0.6546666666666666 0.7733333333333332 0.724 -0.3586666666666667 0.17133333333333334 -1.0819999999999999 -0.1373333333333333 -0.5446666666666666 -0.23199999999999998 -0.3353333333333333 -0.06066666666666666 -0.712 -0.22999999999999998 -0.3913333333333333 0.18666666666666668 0.2733333333333333 0.22866666666666668 0.9666666666666666 0.204 1.0913333333333333 0.22999999999999998 -0.106 0.23199999999999998 -0.2866666666666666 0.25066666666666665 0.004 0.26866666666666666 -0.32399999999999995 0.17333333333333334 0.104 0.19999999999999998 0.134 0.29866666666666664zm-0.6626666666666666 -1.8719999999999999c-0.1973333333333333 -0.20666666666666667 -0.24866666666666665 -0.5933333333333333 -0.03533333333333333 -0.25666666666666665 0.10933333333333334 0.044 0.35 0.6313333333333333 0.03533333333333333 0.25666666666666665zm2.1586666666666665 1.3713333333333333c0.12333333333333332 -0.007333333333333332 0.004 0.09333333333333334 0 0zm-2.4706666666666663 -1.877333333333333c-0.006666666666666666 -0.312 0.07133333333333333 0.24 0 0zm-0.21466666666666667 -0.2886666666666666c-0.248 -0.48 0.3133333333333333 0.13599999999999998 0 0zm-2.5999999999999996 -1.7946666666666666c0.146 -0.039999999999999994 0.072 0.24933333333333332 0 0zm2.0693333333333332 1.1213333333333333c0.08933333333333333 -0.33599999999999997 0.10533333333333333 0.2826666666666666 0 0zm-1.4613333333333334 -1.0166666666666666c-0.10333333333333333 -0.18533333333333335 0.21533333333333332 0.17333333333333334 0 0zm1.2546666666666666 0.4026666666666666c-0.23466666666666663 -0.5266666666666666 0.16666666666666666 -0.288 0.052 0.08666666666666667zM3.8466666666666662 8.144666666666666c-0.10533333333333333 -0.17333333333333334 -0.2786666666666666 -0.6799999999999999 -0.22266666666666668 -0.8346666666666667 0.050666666666666665 0.252 0.536 1.0846666666666667 0.238 0.3453333333333333 -0.3293333333333333 -0.62 0.3933333333333333 0.2013333333333333 0.46799999999999997 0.356 0.03333333333333333 0.15333333333333332 -0.2033333333333333 -0.041999999999999996 -0.042666666666666665 0.31866666666666665 -0.29333333333333333 -0.41133333333333333 -0.17333333333333334 0.22666666666666668 -0.44066666666666665 -0.18533333333333335zm-0.6686666666666665 -0.4606666666666666c0.026666666666666665 -0.40199999999999997 0.15333333333333332 0.2753333333333333 0 0zm0.3 0.10333333333333333c0.144 -0.30333333333333334 0.244 0.42266666666666663 0 0zm-0.7226666666666667 -0.5599999999999999c-0.24933333333333332 -0.24666666666666665 -0.42933333333333334 -0.4753333333333333 0.011333333333333334 -0.15333333333333332 0.16999999999999998 0.006666666666666666 -0.3773333333333333 -0.5186666666666666 0.039999999999999994 -0.16666666666666666 0.44 0.07999999999999999 0.218 0.7213333333333334 -0.05133333333333333 0.31999999999999995zm0.37999999999999995 -0.009999999999999998c0.14466666666666667 -0.1433333333333333 0.07666666666666666 0.1413333333333333 0 0zm0.2333333333333333 0.07533333333333334c-0.21866666666666668 -0.41133333333333333 0.26666666666666666 0.172 0 0zm-0.4646666666666666 -0.44466666666666665c-0.724 -0.6439999999999999 0.9099999999999999 0.3373333333333333 0.118 0.12zm2.0733333333333333 1.2053333333333334c-0.3133333333333333 -0.18799999999999997 -0.08199999999999999 -1.3226666666666667 0.024666666666666663 -0.5466666666666666 0.30466666666666664 -0.09866666666666665 -0.016666666666666666 0.39999999999999997 0.21 0.39599999999999996 -0.03533333333333333 0.3153333333333333 -0.1373333333333333 0.42866666666666664 -0.2333333333333333 0.15066666666666667zm0.7666666666666666 0.45333333333333337c0.032 -0.34199999999999997 0.066 0.2333333333333333 0 0zm-0.13333333333333333 -0.132c0.036 -0.14666666666666667 0.004666666666666666 0.172 0 0zM3.046666666666667 6.636666666666667c-0.4646666666666666 -0.6419999999999999 1.3513333333333333 0.6486666666666666 0.298 0.16266666666666665 -0.11 -0.028666666666666663 -0.24266666666666664 -0.039999999999999994 -0.298 -0.16266666666666665zm1.4773333333333334 0.7833333333333333c-0.044 -0.54 0.09799999999999999 0.08933333333333333 0 0zm1.1213333333333333 0.7193333333333333c0.08666666666666667 -0.308 0.006666666666666666 0.2033333333333333 0 0zM3.1173333333333333 6.391333333333333c0.2766666666666666 -0.05866666666666666 1.1453333333333333 0.486 0.3466666666666667 0.156 -0.088 -0.09866666666666665 -0.2773333333333333 -0.05333333333333333 -0.3466666666666667 -0.156zm2.373333333333333 1.1833333333333331c0.02933333333333333 -0.5533333333333332 0.16533333333333333 -0.32999999999999996 0.0013333333333333333 0.07866666666666666zM3.3233333333333333 6.199333333333333c0.11266666666666666 -0.16533333333333333 -0.3 -0.7466666666666667 0.05933333333333333 -0.20866666666666667 0.15466666666666667 0.12333333333333332 0.448 0.20666666666666667 0.18866666666666665 0.258 0.4066666666666666 0.35933333333333334 -0.09999999999999999 0.09733333333333333 -0.248 -0.049333333333333326zm2.05 1.2026666666666666c0.078 -0.6293333333333333 0.06866666666666665 0.3686666666666667 0 0zM3.0879999999999996 5.617999999999999c0.086 -0.03666666666666667 0.04533333333333334 0.11466666666666665 0 0zm0.5346666666666666 0.31866666666666665c0.1373333333333333 -0.28933333333333333 0.2533333333333333 0.32199999999999995 0 0zm1.5086666666666666 0.8393333333333333c-0.0013333333333333333 -0.11133333333333334 0.028666666666666663 0.16133333333333333 0 0zm-0.08733333333333333 -0.1933333333333333c-0.20933333333333332 -0.5173333333333333 0.19466666666666665 0.2733333333333333 0 0zm-0.12866666666666665 -0.33999999999999997c-0.03533333333333333 -0.21333333333333332 0.12 0.2693333333333333 0 0zm0.20933333333333332 -0.33999999999999997c-0.144 -0.2533333333333333 0.18133333333333335 -1.1153333333333333 0.21733333333333332 -0.58 -0.15133333333333332 0.41666666666666663 -0.043333333333333335 0.6499999999999999 0.062 0.09066666666666667 0.1953333333333333 -0.44 -0.041999999999999996 0.8686666666666666 -0.27999999999999997 0.49zm0.21466666666666667 -1.282c0.06266666666666666 -0.07666666666666666 0.013333333333333332 0.09266666666666667 0 0zM4.9799999999999995 11.696c-0.08533333333333333 -0.074 0.010666666666666666 0.04666666666666667 0 0zm0.74 0.37333333333333335c0.41 0.10666666666666666 0.408 -0.06333333333333332 0.03666666666666667 -0.11333333333333334 -0.19999999999999998 -0.18666666666666668 -0.8306666666666667 -0.3833333333333333 -0.26666666666666666 -0.023333333333333334 0.038 0.09466666666666665 0.15666666666666665 0.09266666666666667 0.2293333333333333 0.1373333333333333zM4.259333333333333 11.099999999999998c0.22666666666666668 0.16866666666666666 0.8533333333333333 0.4793333333333333 0.32266666666666666 0.064 0.17933333333333334 -0.208 -0.3426666666666667 -0.31866666666666665 -0.16933333333333334 -0.45733333333333337 -0.44 -0.2693333333333333 -0.3466666666666667 -0.24533333333333332 -0.03866666666666667 -0.2373333333333333 -0.5293333333333333 -0.236 0.076 -0.21866666666666668 0.04666666666666667 -0.33999999999999997 -0.2033333333333333 -0.039999999999999994 -1.0133333333333332 -0.36 -0.536 0.026666666666666665 -0.484 -0.24666666666666665 -0.11533333333333332 0.092 -0.2613333333333333 0.056 -0.4953333333333333 -0.13466666666666666 0.44 0.3766666666666666 -0.07866666666666666 0.25 0.2833333333333333 0.22466666666666668 0.7639999999999999 0.576 0.12 0.238 -0.08533333333333333 0.122 0.45999999999999996 0.30666666666666664 0.5946666666666667 0.39999999999999997zm0.7733333333333332 0.44466666666666665c0.94 0.30266666666666664 -0.4606666666666666 -0.3706666666666667 0 0zm3.96 2.3986666666666663c0.013333333333333332 -0.18666666666666668 -0.12866666666666665 0.15999999999999998 0 0zm0.4073333333333333 0.17133333333333334c0.21666666666666667 -0.21 0.008666666666666666 0.3353333333333333 0.36 -0.05133333333333333 0.003333333333333333 -0.2766666666666666 -0.011333333333333334 -0.44 -0.40399999999999997 -0.104 -0.108 0.06 -0.156 0.3153333333333333 0.044 0.15533333333333332zm-6.461333333333333 -4.058c-0.06666666666666667 -0.262 -0.4666666666666666 -0.26 0 0zm0.43466666666666665 0.2853333333333333c-0.16133333333333333 -0.268 -0.576 -0.24266666666666664 0 0zm2.473333333333333 1.4913333333333334c0.24133333333333332 0.21333333333333332 1.1079999999999999 0.15733333333333333 0.29333333333333333 0.026666666666666665 -0.12133333333333332 -0.18 -0.7673333333333333 -0.13599999999999998 -0.29333333333333333 -0.026666666666666665zm3.398 2.099333333333333c0.372 -0.312 -0.36 0.13866666666666666 0 0zm0.7733333333333332 0.5306666666666666c0.002 -0.09999999999999999 -0.15999999999999998 0.044 0 0zm0.0006666666666666666 -0.13999999999999999c0.41133333333333333 -0.436 -0.3986666666666666 0.026 0 0zM1.87 9.161999999999999c-0.3506666666666667 -0.5 -0.218 -0.7253333333333334 -0.5566666666666666 -1.1333333333333333 -0.064 -0.3133333333333333 -0.58 -1.0219999999999998 -0.26666666666666666 -0.27066666666666667 0.2866666666666666 0.43933333333333335 0.372 1.1193333333333333 0.8233333333333334 1.404zm8.02 5.022666666666666c0.7566666666666666 -0.4893333333333333 -0.31066666666666665 -0.21333333333333332 0 0zm0.5773333333333333 0.22666666666666668c0.37999999999999995 -0.3253333333333333 -0.24 -0.06799999999999999 0 0zM2.8099999999999996 9.503333333333334c0.10866666666666666 -0.16133333333333333 -0.27999999999999997 -0.020666666666666667 0 0zm7.536666666666666 4.752666666666666c0.36733333333333335 -0.23666666666666664 -0.08399999999999999 -0.19999999999999998 -0.06666666666666667 0.021333333333333333zm-4.9799999999999995 -3.1399999999999997c-0.013333333333333332 -0.15999999999999998 -0.19399999999999998 0.013333333333333332 0 0zm0.30666666666666664 0.178c-0.09666666666666665 -0.19799999999999998 -0.14933333333333332 0.03133333333333333 0 0zm5.262666666666666 3.1226666666666665c0.47 -0.33999999999999997 -0.2853333333333333 -0.06533333333333333 -0.09866666666666665 0.064zm-0.18 -0.08666666666666667c0.3826666666666666 -0.3213333333333333 -0.4046666666666666 0.142 0 0zm0.9199999999999999 0.612c0.2573333333333333 -0.172 -0.31266666666666665 -0.05533333333333333 0 0zM3.046666666666667 9.386666666666667c0.3446666666666667 0.07733333333333334 1.377333333333333 0.8493333333333333 0.7679999999999999 0.05333333333333333 -0.312 -0.092 -0.12466666666666666 -0.8553333333333333 -0.44333333333333336 -0.72 0.21333333333333332 0.3566666666666667 0.176 0.5086666666666666 -0.2733333333333333 0.284 -0.5633333333333332 -0.2753333333333333 -0.31599999999999995 0.13599999999999998 -0.20666666666666667 0.24933333333333332 -0.14933333333333332 0.034666666666666665 0.1993333333333333 0.13066666666666665 0.15533333333333332 0.13333333333333333zm-1.5706666666666664 -1.24c0.06133333333333333 -0.2553333333333333 -0.5686666666666667 -1.4046666666666667 -0.29733333333333334 -0.576 0.09733333333333333 0.17333333333333334 0.08666666666666667 0.5026666666666666 0.29733333333333334 0.576zm2.8826666666666663 1.7773333333333332c-0.17733333333333334 -0.14866666666666667 -0.008666666666666666 -0.021333333333333333 0 0zm0.43733333333333335 0.10133333333333333c0 -0.27 -0.4833333333333333 -0.10933333333333334 0 0zm3.787333333333333 2.3886666666666665c-0.072 -0.18533333333333335 -0.2853333333333333 -0.004 0 0zm0.182 0.13266666666666665c-0.026666666666666665 -0.10333333333333333 -0.10466666666666666 0.019999999999999997 0 0zm1.5013333333333332 0.9466666666666665c0.144 -0.10666666666666666 -0.18 -0.013333333333333332 0 0zM2.26 8.346666666666666c0.41333333333333333 -0.15999999999999998 -0.44266666666666665 -0.11333333333333334 0 0zm5.989333333333333 3.7746666666666666c-0.004666666666666666 -0.2673333333333333 -0.2633333333333333 0.06666666666666667 0 0zm-6.153333333333333 -4.154c0.266 -0.09 -0.24466666666666664 -0.06 0 0zm0.7706666666666666 0.37333333333333335c-0.004666666666666666 -0.08866666666666667 -0.08133333333333333 0.03333333333333333 0 0zm9.393333333333333 5.76c0.3413333333333333 -0.06933333333333333 1.1186666666666665 0.17333333333333334 1.244 -0.09066666666666667 -0.41333333333333333 -0.009999999999999998 -1.4333333333333331 -0.292 -1.4813333333333332 0.06666666666666667l0.09066666666666667 0.015333333333333332 0.14666666666666667 0.008666666666666666zM3.111333333333333 8.402c0.005999999999999999 -0.2713333333333333 -0.21133333333333332 -0.009999999999999998 0 0zM1.0866666666666664 6.996666666666666c-0.092 -0.5166666666666666 -0.35 -0.07866666666666666 0 0zm0.48266666666666663 0.12133333333333332c0.005999999999999999 -0.16666666666666666 -0.442 -0.14933333333333332 0 0zm0.27599999999999997 0.13533333333333333c-0.07999999999999999 -0.06466666666666666 -0.06266666666666666 0.08133333333333333 0 0zm1.7366666666666666 1.1133333333333333c0.08133333333333333 -0.07466666666666666 -0.1933333333333333 -0.05533333333333333 0 0zm-1.92 -1.4186666666666667c-0.04666666666666667 -0.38999999999999996 -0.5599999999999999 -0.05866666666666666 0 0zm-0.9906666666666666 -0.6426666666666666c-0.013333333333333332 -0.18 -0.09599999999999999 0.06799999999999999 0 0zm0.14666666666666667 -0.11133333333333334c-0.023333333333333334 -0.21333333333333332 -0.12666666666666665 0.026666666666666665 0 0zm0.8133333333333332 0.486c0.3453333333333333 -0.13533333333333333 -0.6266666666666666 -0.27999999999999997 -0.06933333333333333 -0.026666666666666665zm10.889333333333333 6.726c0.22 -0.20199999999999999 -0.27999999999999997 -0.06266666666666666 0 0zm1.3159999999999998 0.6819999999999999c0.088 -0.2613333333333333 -0.22266666666666668 0.03333333333333333 0 0zM1.7153333333333332 6.253333333333334c0.03666666666666667 -0.2533333333333333 -0.2733333333333333 0.049999999999999996 0 0zM0.5579999999999999 5.478666666666666c-0.062 -0.3566666666666667 -0.05333333333333333 -0.9826666666666666 0.5413333333333333 -0.7706666666666666 -0.794 0.15733333333333333 0.5493333333333332 0.9866666666666666 0.37999999999999995 0.33199999999999996 0.3333333333333333 0.016 0.6533333333333333 -0.1973333333333333 0.4773333333333333 0.12666666666666665 0.6579999999999999 -0.07333333333333333 1.1133333333333333 -0.6426666666666666 1.7493333333333334 -0.5633333333333332 0.49466666666666664 -0.06533333333333333 1.036 -0.11466666666666665 1.5693333333333332 -0.31399999999999995 0.43866666666666665 -0.032 0.86 -0.504 0.62 -0.7833333333333333 -0.5973333333333333 -0.050666666666666665 -1.2233333333333332 0.023999999999999997 -1.8846666666666665 0.15533333333333332 -0.732 0.152 -1.3973333333333333 0.44133333333333336 -2.1366666666666667 0.566 -0.72 0.09666666666666665 0.14466666666666667 0.26666666666666666 -0.06133333333333333 0.304 -0.37599999999999995 0.13066666666666665 0.448 0.21866666666666668 -0.048666666666666664 0.356 -0.30666666666666664 -0.05866666666666666 -0.6266666666666666 -0.16399999999999998 -0.4953333333333333 -0.48666666666666664 -0.69 0.08866666666666667 -1.2966666666666666 0.3753333333333333 -0.7513333333333333 1.0773333333333333h0.039999999999999994zm1.6626666666666667 -0.8466666666666667c0.16199999999999998 -0.596 0.8666666666666667 0.49 0.2653333333333333 0.07866666666666666 -0.072 -0.05333333333333333 -0.18999999999999997 -0.09733333333333333 -0.2653333333333333 -0.07999999999999999zm0.03133333333333333 -0.28933333333333333c0.2333333333333333 -0.17333333333333334 0.124 0.09733333333333333 0 0zm0.29666666666666663 0.005333333333333333c0.021333333333333333 -0.27399999999999997 0.6786666666666666 0.14533333333333331 0.10866666666666666 0.09866666666666665zm0.4053333333333333 -0.16333333333333333c0.148 -0.17333333333333334 0.042666666666666665 0.15333333333333332 0 0zm0.104 -0.06933333333333333c0.24666666666666665 -0.296 1.3966666666666667 -0.18866666666666665 0.5546666666666666 -0.028666666666666663 -0.22533333333333333 -0.16999999999999998 -0.3986666666666666 0.09999999999999999 -0.5546666666666666 0.028666666666666663zm1.5 -0.2313333333333333c-0.03666666666666667 -0.8093333333333332 0.746 0.288 0 0zm0.42666666666666664 -0.0026666666666666666c0.15533333333333332 -0.408 0.604 -0.16333333333333333 0.072 -0.08199999999999999 0.011333333333333334 0.043333333333333335 -0.016 0.21066666666666667 -0.072 0.08199999999999999zM1.548 6.044666666666666c0.4646666666666666 -0.2846666666666666 -0.494 -0.24666666666666665 0 0zm0.3433333333333333 0.09599999999999999c0.16333333333333333 -0.17333333333333334 -0.354 -0.07066666666666666 0 0zm-1.0133333333333332 -0.72c0.266 -0.2033333333333333 -0.31399999999999995 -0.07733333333333334 0 0zm13.734666666666666 8.593333333333334c0.008 -0.23666666666666664 -0.20266666666666666 0.10666666666666666 0 0zm-1.3953333333333333 -0.9533333333333333c0.039999999999999994 -0.27199999999999996 -0.18 0.024666666666666663 0 0zm1.7799999999999998 1.0453333333333332c0.37133333333333335 0 1.1253333333333333 -0.11533333333333332 0.31666666666666665 -0.11533333333333332 -0.12666666666666665 0.019999999999999997 -0.7393333333333333 0.016 -0.3173333333333333 0.11533333333333332zM2.1933333333333334 5.972666666666666c0.3 -0.019999999999999997 0.4706666666666666 -0.3313333333333333 -0.057999999999999996 -0.3133333333333333 -0.82 -0.08466666666666667 0.7226666666666667 0.27999999999999997 -0.10533333333333333 0.176 -0.11133333333333334 0.07333333333333333 0.15733333333333333 0.15799999999999997 0.16333333333333333 0.13799999999999998zm0.2653333333333333 0.13466666666666666c-0.032 -0.1933333333333333 -0.09333333333333334 0.10266666666666666 0 0zm0.3133333333333333 -0.8379999999999999c0.13133333333333333 -0.16199999999999998 -0.18 -0.043333333333333335 0 0zm-1 -1.672c0.5373333333333333 -0.18266666666666667 1.2713333333333332 -0.3873333333333333 1.5246666666666666 0.09 -0.258 -0.31066666666666665 -0.104 -0.616 0.13999999999999999 -0.16199999999999998 0.344 0.45933333333333326 0.5166666666666666 -0.20866666666666667 0.292 -0.36333333333333334 0.2553333333333333 0.3173333333333333 0.5459999999999999 0.4666666666666666 0.17133333333333334 0.019999999999999997 0.4066666666666666 -0.4893333333333333 -0.8153333333333334 0.06466666666666666 -1.0933333333333333 0.05866666666666666 -0.13333333333333333 0.06 -1.3806666666666667 0.31799999999999995 -1.0339999999999998 0.3566666666666667zm0.31466666666666665 -0.602c0.30666666666666664 -0.2313333333333333 1.0586666666666666 0.1373333333333333 0.576 -0.22999999999999998 -0.04666666666666667 -0.04133333333333333 -1.0573333333333332 0.2786666666666666 -0.576 0.22999999999999998zm1.1159999999999999 0.046c0.3586666666666667 0.008666666666666666 -0.154 -0.4813333333333333 0.2726666666666666 -0.26 -0.06999999999999999 -0.22866666666666668 -0.4973333333333333 -0.2713333333333333 -0.7066666666666667 -0.3626666666666667 -0.11733333333333332 0.20933333333333332 0.24 0.6253333333333333 0.43333333333333335 0.6226666666666667zm-0.9199999999999999 -1.0133333333333332c0.124 -0.16799999999999998 -0.21733333333333332 0.08533333333333333 0 0zm0.456 0.10933333333333334c0.5773333333333333 -0.07666666666666666 -0.14666666666666667 -0.24866666666666665 -0.11599999999999999 -0.006666666666666666zm-0.8513333333333333 -0.6666666666666666c-0.4066666666666666 -0.5306666666666666 0.7639999999999999 0.08933333333333333 0.35133333333333333 -0.4666666666666666 -0.348 -0.2766666666666666 -0.6819999999999999 0.312 -0.35133333333333333 0.4666666666666666zm5.215999999999999 2.8099999999999996c0.18666666666666668 -0.33066666666666666 -0.77 -0.44533333333333336 -0.12533333333333332 -0.11666666666666665 0.06 0.019999999999999997 0.04666666666666667 0.13999999999999999 0.12533333333333332 0.11666666666666665z" fill="#ffffff" stroke-width="0.6667"></path>
</svg>