<svg role="img" viewBox="0 0 16 16" xmlns="http://www.w3.org/2000/svg" id="Github--Streamline-Simple-Icons" height="16" width="16">
  <desc>
    Github Streamline Icon: https://streamlinehq.com
  </desc>
  <title>GitHub</title>
  <path d="M8 0.19799999999999998c-4.42 0 -8 3.582 -8 8 0 3.535333333333333 2.292 6.533333333333333 5.47 7.59 0.39999999999999997 0.07533333333333334 0.5466666666666666 -0.172 0.5466666666666666 -0.3846666666666666 0 -0.18999999999999997 -0.006666666666666666 -0.6933333333333334 -0.009999999999999998 -1.3599999999999999 -2.2253333333333334 0.48266666666666663 -2.6946666666666665 -1.0733333333333333 -2.6946666666666665 -1.0733333333333333C2.9479999999999995 12.046666666666667 2.4219999999999997 11.799999999999999 2.4219999999999997 11.799999999999999c-0.7246666666666666 -0.496 0.056 -0.486 0.056 -0.486 0.8033333333333333 0.056 1.2253333333333334 0.824 1.2253333333333334 0.824 0.7133333333333334 1.2233333333333332 1.8726666666666667 0.8699999999999999 2.33 0.6653333333333333 0.072 -0.5173333333333333 0.27799999999999997 -0.8699999999999999 0.5066666666666666 -1.0699999999999998 -1.7766666666666666 -0.19999999999999998 -3.644 -0.888 -3.644 -3.953333333333333 0 -0.8733333333333333 0.31 -1.5866666666666664 0.8233333333333334 -2.1466666666666665 -0.09 -0.20199999999999999 -0.36 -1.0153333333333332 0.06999999999999999 -2.1173333333333333 0 0 0.6699999999999999 -0.21466666666666667 2.1999999999999997 0.82 0.6399999999999999 -0.178 1.3199999999999998 -0.266 2 -0.27 0.6799999999999999 0.004 1.3599999999999999 0.092 2 0.27 1.5199999999999998 -1.0346666666666666 2.19 -0.82 2.19 -0.82 0.43 1.1019999999999999 0.15999999999999998 1.9153333333333333 0.07999999999999999 2.1173333333333333 0.51 0.5599999999999999 0.82 1.2733333333333332 0.82 2.1466666666666665 0 3.0733333333333333 -1.87 3.75 -3.6499999999999995 3.9466666666666663 0.27999999999999997 0.24 0.54 0.7306666666666667 0.54 1.48 0 1.0706666666666667 -0.009999999999999998 1.9306666666666665 -0.009999999999999998 2.1906666666666665 0 0.21 0.13999999999999999 0.45999999999999996 0.5499999999999999 0.37999999999999995C13.71 14.727999999999998 16 11.727999999999998 16 8.198c0 -4.417999999999999 -3.582 -8 -8 -8" fill="#ffffff" stroke-width="0.6667"></path>
</svg>