<svg role="img" viewBox="0 0 16 16" xmlns="http://www.w3.org/2000/svg" id="Python--Streamline-Simple-Icons" height="16" width="16">
  <desc>
    Python Streamline Icon: https://streamlinehq.com
  </desc>
  <title>Python</title>
  <path d="m9.462666666666667 0.31599999999999995 0.5850666666666666 0.13 0.47459999999999997 0.16906666666666664 0.38353333333333334 0.19499999999999998 0.2925333333333333 0.20806666666666665 0.221 0.221 0.1625333333333333 0.221 0.104 0.2145333333333333 0.06506666666666666 0.19506666666666667 0.026 0.16899999999999998 0.013 0.13 -0.006533333333333333 0.08453333333333332v3.4714666666666667l-0.03253333333333333 0.4095333333333333 -0.08446666666666666 0.3575333333333333 -0.13653333333333334 0.29906666666666665 -0.16899999999999998 0.247 -0.19506666666666667 0.20153333333333334 -0.2145333333333333 0.1625333333333333 -0.2275333333333333 0.12353333333333333 -0.22746666666666665 0.091 -0.2145333333333333 0.065 -0.19506666666666667 0.04553333333333333 -0.16899999999999998 0.026 -0.13653333333333334 0.013H5.9002l-0.4485333333333333 0.032466666666666665 -0.38353333333333334 0.091 -0.3250666666666666 0.14306666666666668 -0.2665333333333333 0.17546666666666666 -0.2145333333333333 0.20806666666666665 -0.17546666666666666 0.2275333333333333 -0.13006666666666666 0.23399999999999999 -0.09746666666666666 0.24053333333333332 -0.065 0.2275333333333333 -0.04553333333333333 0.208 -0.026 0.17553333333333332 -0.013 0.13653333333333334v1.9892666666666667H2.259733333333333l-0.13646666666666665 -0.019533333333333333 -0.18206666666666665 -0.04546666666666666 -0.208 -0.078 -0.2275333333333333 -0.11706666666666667 -0.23399999999999999 -0.16899999999999998 -0.23406666666666667 -0.23399999999999999 -0.2275333333333333 -0.29906666666666665 -0.208 -0.38353333333333334 -0.182 -0.4745333333333333 -0.13653333333333334 -0.5721333333333333 -0.091 -0.6825333333333333L0.15999999999999998 7.980533333333334l0.039 -0.7931333333333332 0.104 -0.6760666666666666 0.15606666666666666 -0.5656 0.208 -0.46153333333333335 0.23399999999999999 -0.37053333333333327 0.26006666666666667 -0.28606666666666664 0.27299999999999996 -0.2145333333333333 0.2730666666666667 -0.156 0.26 -0.104 0.23406666666666667 -0.065 0.208 -0.03253333333333333 0.15606666666666666 -0.006466666666666667h0.104l0.039 0.006466666666666667h5.304666666666666V3.7159999999999997H4.216533333333333L4.21 1.9282666666666666l-0.013 -0.24053333333333332 0.03253333333333333 -0.22106666666666666 0.07146666666666666 -0.20153333333333334 0.11053333333333333 -0.182 0.1625333333333333 -0.16899999999999998 0.20153333333333334 -0.14953333333333332 0.247 -0.13 0.28606666666666664 -0.11699999999999999 0.33153333333333335 -0.09753333333333333 0.37706666666666666 -0.078 0.416 -0.065 0.4616 -0.039 0.5005333333333333 -0.026 0.5460666666666667 -0.013 0.8255999999999999 0.032466666666666665ZM5.367133333333333 1.6031999999999997l-0.14946666666666666 0.2145333333333333 -0.052 0.2665333333333333 0.052 0.2665333333333333 0.14946666666666666 0.221 0.2145333333333333 0.143 0.2665333333333333 0.05853333333333333 0.2665333333333333 -0.05853333333333333 0.2145333333333333 -0.143 0.14953333333333332 -0.221 0.052 -0.2665333333333333 -0.052 -0.2665333333333333 -0.14953333333333332 -0.2145333333333333 -0.2145333333333333 -0.14306666666666668 -0.2665333333333333 -0.05846666666666667 -0.2665333333333333 0.05846666666666667Zm8.509599999999999 2.5678 0.18206666666666665 0.039 0.208 0.078 0.2275333333333333 0.11706666666666667 0.23399999999999999 0.17546666666666666 0.23406666666666667 0.2275333333333333 0.2275333333333333 0.3055333333333333 0.208 0.3836 0.182 0.4745333333333333 0.13653333333333334 0.5720666666666666 0.091 0.6760666666666666 0.03253333333333333 0.7996 -0.039 0.7996 -0.104 0.6761333333333333 -0.15606666666666666 0.5590666666666666 -0.208 0.46153333333333335 -0.23406666666666667 0.37053333333333327 -0.26 0.2925333333333333 -0.2730666666666667 0.2145333333333333 -0.27299999999999996 0.15606666666666666 -0.26006666666666667 0.104 -0.23399999999999999 0.05846666666666667 -0.208 0.03253333333333333 -0.15606666666666666 0.013 -0.104 -0.006466666666666667h-5.343666666666666v0.5330666666666666h3.7964666666666664l0.006533333333333333 1.7942 0.013 0.23399999999999999 -0.03253333333333333 0.22106666666666666 -0.07146666666666666 0.20153333333333334 -0.11053333333333333 0.18853333333333333 -0.1625333333333333 0.16246666666666665 -0.20153333333333334 0.15606666666666666 -0.247 0.13 -0.28606666666666664 0.11053333333333333 -0.33153333333333335 0.09746666666666666 -0.37706666666666666 0.08453333333333332 -0.416 0.05853333333333333 -0.4616 0.04546666666666666 -0.5005333333333333 0.026 -0.5460666666666667 0.006533333333333333 -0.8255999999999999 -0.026 -0.6956 -0.09106666666666666 -0.5850666666666666 -0.13 -0.47459999999999997 -0.1625333333333333 -0.38353333333333334 -0.19499999999999998 -0.2925333333333333 -0.2145333333333333 -0.221 -0.221 -0.1625333333333333 -0.22106666666666666 -0.104 -0.2145333333333333 -0.06506666666666666 -0.19499999999999998 -0.026 -0.1625333333333333 -0.013 -0.13 0.006533333333333333 -0.08453333333333332v-3.4713999999999996l0.03253333333333333 -0.41606666666666664 0.08446666666666666 -0.35106666666666664 0.13653333333333334 -0.299 0.16899999999999998 -0.24706666666666666 0.19506666666666667 -0.208 0.2145333333333333 -0.15606666666666666 0.2275333333333333 -0.13 0.22746666666666665 -0.091 0.2145333333333333 -0.065 0.19506666666666667 -0.039 0.16899999999999998 -0.026 0.13653333333333334 -0.013 0.08453333333333332 -0.006533333333333333h3.7964666666666664l0.4485333333333333 -0.032466666666666665 0.38353333333333334 -0.091 0.3250666666666666 -0.13653333333333334 0.2665333333333333 -0.18206666666666665 0.2145333333333333 -0.208 0.17553333333333332 -0.2275333333333333 0.13 -0.23399999999999999 0.09753333333333333 -0.23406666666666667 0.065 -0.2275333333333333 0.04546666666666666 -0.208 0.026 -0.182 0.013 -0.13653333333333334V4.145h1.3586666666666665l0.09106666666666666 0.006533333333333333Zm-4.2059999999999995 9.263666666666666 -0.14953333333333332 0.2145333333333333 -0.052 0.2665333333333333 0.052 0.2665333333333333 0.14953333333333332 0.2145333333333333 0.2145333333333333 0.14953333333333332 0.2665333333333333 0.052 0.2665333333333333 -0.052 0.2145333333333333 -0.14953333333333332 0.14946666666666666 -0.2145333333333333 0.052 -0.2665333333333333 -0.052 -0.2665333333333333 -0.14946666666666666 -0.2145333333333333 -0.2145333333333333 -0.14946666666666666 -0.2665333333333333 -0.052066666666666664 -0.2665333333333333 0.052066666666666664Z" fill="#ffffff" stroke-width="0.6667"></path>
</svg>