<svg role="img" viewBox="0 0 16 16" xmlns="http://www.w3.org/2000/svg" id="React--Streamline-Simple-Icons" height="16" width="16">
  <desc>
    React Streamline Icon: https://streamlinehq.com
  </desc>
  <title>React</title>
  <path d="M9.486666666666666 8.002666666666666a1.4906666666666668 1.4906666666666668 0 0 1 -1.4899999999999998 1.4906666666666668 1.4906666666666668 1.4906666666666668 0 0 1 -1.4906666666666668 -1.4906666666666668 1.4906666666666668 1.4906666666666668 0 0 1 1.4899999999999998 -1.4906666666666668 1.4906666666666668 1.4906666666666668 0 0 1 1.4906666666666668 1.4906666666666668zm1.7653333333333334 -7.126666666666666c-0.8973333333333333 0 -2.0713333333333335 0.6399999999999999 -3.2586666666666666 1.7479999999999998 -1.1866666666666665 -1.1019999999999999 -2.361333333333333 -1.7346666666666666 -3.2579999999999996 -1.7346666666666666 -0.2733333333333333 0 -0.522 0.062 -0.7373333333333334 0.18533333333333335 -0.9166666666666666 0.5286666666666666 -1.1219999999999999 2.1759999999999997 -0.6486666666666666 4.243333333333333C1.3199999999999998 5.9446666666666665 0 6.946666666666666 0 8.002666666666666c0 1.06 1.3266666666666667 2.0646666666666667 3.362 2.6866666666666665 -0.46933333333333327 2.075333333333333 -0.26 3.7253333333333334 0.6586666666666666 4.253333333333333 0.21333333333333332 0.12466666666666666 0.45999999999999996 0.18333333333333335 0.7346666666666667 0.18333333333333335 0.8966666666666666 0 2.0713333333333335 -0.6399999999999999 3.2586666666666666 -1.7493333333333334 1.1866666666666665 1.1026666666666665 2.361333333333333 1.7353333333333334 3.2579999999999996 1.7353333333333334 0.2733333333333333 0 0.522 -0.06 0.7373333333333334 -0.18333333333333335 0.916 -0.528 1.1219999999999999 -2.175333333333333 0.6486666666666666 -4.243333333333333C14.68 10.064 16 9.059999999999999 16 8.002666666666666c0 -1.06 -1.3266666666666667 -2.0646666666666667 -3.362 -2.6879999999999997 0.46933333333333327 -2.0733333333333333 0.26 -3.7246666666666663 -0.6586666666666666 -4.253333333333333 -0.212 -0.12266666666666666 -0.4586666666666666 -0.18466666666666667 -0.728 -0.18533333333333335zm-0.003333333333333333 0.7266666666666667v0.004c0.15 0 0.27066666666666667 0.02933333333333333 0.372 0.08466666666666667 0.444 0.25466666666666665 0.6366666666666666 1.2233333333333332 0.48666666666666664 2.469333333333333 -0.036 0.30666666666666664 -0.09466666666666665 0.6299999999999999 -0.16666666666666666 0.96 -0.6399999999999999 -0.15733333333333333 -1.337333333333333 -0.27799999999999997 -2.0713333333333335 -0.356 -0.44 -0.6033333333333333 -0.8966666666666666 -1.1513333333333333 -1.3566666666666667 -1.6313333333333333 1.0613333333333332 -0.9866666666666666 2.058 -1.5279999999999998 2.736666666666667 -1.5299999999999998zm-6.513333333333333 0.013333333333333332c0.6746666666666666 0 1.6759999999999997 0.5386666666666666 2.74 1.5199999999999998 -0.45733333333333337 0.48 -0.9133333333333333 1.0246666666666666 -1.3466666666666667 1.6280000000000001 -0.738 0.078 -1.436 0.19866666666666666 -2.075333333333333 0.3586666666666667 -0.07466666666666666 -0.32666666666666666 -0.13 -0.6426666666666666 -0.16933333333333334 -0.9466666666666665 -0.15333333333333332 -1.2453333333333334 0.036 -2.213333333333333 0.476 -2.471333333333333 0.12666666666666665 -0.06 0.26666666666666666 -0.08466666666666667 0.3753333333333333 -0.088zm3.254666666666666 2.033333333333333c0.30333333333333334 0.312 0.6066666666666667 0.6613333333333333 0.9066666666666667 1.0426666666666666 -0.29333333333333333 -0.013333333333333332 -0.5933333333333333 -0.02266666666666667 -0.8966666666666666 -0.02266666666666667 -0.30666666666666664 0 -0.61 0.006666666666666666 -0.9066666666666667 0.02266666666666667 0.29333333333333333 -0.3813333333333333 0.5966666666666667 -0.7306666666666667 0.8966666666666666 -1.0433333333333332zM8 5.3999999999999995c0.4933333333333333 0 0.9846666666666667 0.02266666666666667 1.468 0.062 0.27066666666666667 0.38799999999999996 0.5346666666666666 0.802 0.7886666666666666 1.24 0.248 0.42666666666666664 0.4733333333333333 0.86 0.6786666666666666 1.2973333333333332 -0.2053333333333333 0.43666666666666665 -0.43066666666666664 0.8733333333333333 -0.6753333333333332 1.2999999999999998 -0.2533333333333333 0.44 -0.5153333333333333 0.8586666666666667 -0.7866666666666666 1.2466666666666666 -0.4853333333333333 0.041999999999999996 -0.9773333333333333 0.06533333333333333 -1.4733333333333332 0.06533333333333333 -0.4933333333333333 0 -0.9846666666666667 -0.023333333333333334 -1.468 -0.062 -0.27066666666666667 -0.38799999999999996 -0.5346666666666666 -0.8026666666666666 -0.7886666666666666 -1.24 -0.248 -0.42666666666666664 -0.4733333333333333 -0.86 -0.6786666666666666 -1.2973333333333332 0.20199999999999999 -0.438 0.43066666666666664 -0.8753333333333333 0.6753333333333332 -1.3026666666666666 0.2533333333333333 -0.44 0.5153333333333333 -0.8573333333333333 0.7866666666666666 -1.2453333333333334 0.4853333333333333 -0.042666666666666665 0.9773333333333333 -0.06533333333333333 1.4733333333333332 -0.06533333333333333zm-2.423333333333333 0.16933333333333334c-0.15999999999999998 0.2513333333333333 -0.31999999999999995 0.5086666666666666 -0.46933333333333327 0.7733333333333332 -0.15 0.26 -0.29 0.5213333333333333 -0.42333333333333334 0.7826666666666666 -0.17666666666666667 -0.43733333333333335 -0.32666666666666666 -0.8733333333333333 -0.45066666666666666 -1.298 0.42666666666666664 -0.09999999999999999 0.8766666666666666 -0.18866666666666665 1.3433333333333333 -0.2573333333333333zm4.84 0c0.46333333333333326 0.06866666666666665 0.9099999999999999 0.15333333333333332 1.337333333333333 0.258 -0.12 0.42133333333333334 -0.27 0.8546666666666667 -0.44 1.2886666666666666 -0.13333333333333333 -0.26 -0.2733333333333333 -0.522 -0.42666666666666664 -0.7826666666666666 -0.15 -0.2613333333333333 -0.31 -0.516 -0.47 -0.7639999999999999zm2.042 0.45c0.32266666666666666 0.09999999999999999 0.6293333333333333 0.21133333333333332 0.9166666666666666 0.33199999999999996 1.1546666666666665 0.4933333333333333 1.901333333333333 1.1386666666666665 1.901333333333333 1.6506666666666665 -0.003333333333333333 0.512 -0.75 1.16 -1.9046666666666667 1.65 -0.27999999999999997 0.12 -0.5866666666666667 0.228 -0.9033333333333333 0.32866666666666666 -0.18666666666666668 -0.6386666666666666 -0.43066666666666664 -1.3039999999999998 -0.7333333333333334 -1.9866666666666666 0.3 -0.6779999999999999 0.54 -1.3399999999999999 0.7233333333333333 -1.976zm-8.93 0.0026666666666666666c0.18533333333333335 0.6399999999999999 0.43 1.3046666666666666 0.7333333333333334 1.9866666666666666 -0.3 0.6779999999999999 -0.5413333333333333 1.3399999999999999 -0.724 1.976 -0.32266666666666666 -0.09999999999999999 -0.6293333333333333 -0.212 -0.9133333333333333 -0.3333333333333333 -1.1546666666666665 -0.4913333333333333 -1.901333333333333 -1.1373333333333333 -1.901333333333333 -1.6493333333333333 0 -0.512 0.7466666666666667 -1.1613333333333333 1.901333333333333 -1.6506666666666665 0.27999999999999997 -0.12 0.5866666666666667 -0.228 0.904 -0.3293333333333333zm7.785333333333334 2.8533333333333335c0.17666666666666667 0.438 0.32666666666666666 0.8746666666666667 0.45066666666666666 1.2986666666666666 -0.42666666666666664 0.10466666666666666 -0.8773333333333333 0.1933333333333333 -1.3439999999999999 0.26 0.15999999999999998 -0.25 0.31999999999999995 -0.508 0.47 -0.7719999999999999 0.15 -0.26 0.29 -0.5253333333333333 0.424 -0.7866666666666666zm-6.63 0.013333333333333332c0.13333333333333333 0.2613333333333333 0.2733333333333333 0.522 0.42666666666666664 0.7833333333333333 0.15333333333333332 0.26 0.31 0.5146666666666666 0.47 0.762 -0.46333333333333326 -0.06799999999999999 -0.9099999999999999 -0.15333333333333332 -1.337333333333333 -0.2573333333333333 0.12 -0.42 0.27066666666666667 -0.8546666666666667 0.44 -1.2886666666666666zM11.946666666666667 10.879999999999999c0.07466666666666666 0.32866666666666666 0.13333333333333333 0.6453333333333333 0.16933333333333334 0.9486666666666667 0.15333333333333332 1.2453333333333334 -0.036 2.213333333333333 -0.476 2.472 -0.09799999999999999 0.06 -0.22533333333333333 0.08533333333333333 -0.3753333333333333 0.08533333333333333 -0.6746666666666666 0 -1.6759999999999997 -0.538 -2.74 -1.5199999999999998 0.45733333333333337 -0.48 0.9133333333333333 -1.024 1.3466666666666667 -1.6266666666666665 0.738 -0.07866666666666666 1.436 -0.19999999999999998 2.075333333333333 -0.36zm-7.886666666666667 0.006666666666666666c0.6399999999999999 0.156 1.337333333333333 0.2766666666666666 2.0713333333333335 0.3546666666666667 0.44 0.6033333333333333 0.8966666666666666 1.1513333333333333 1.3566666666666667 1.6306666666666667 -1.0633333333333332 0.9886666666666667 -2.0613333333333332 1.5299999999999998 -2.74 1.5299999999999998 -0.14666666666666667 -0.003333333333333333 -0.27066666666666667 -0.03333333333333333 -0.3686666666666667 -0.088 -0.444 -0.2533333333333333 -0.6366666666666666 -1.2226666666666666 -0.48666666666666664 -2.4686666666666666 0.036 -0.30666666666666664 0.09466666666666665 -0.6293333333333333 0.16666666666666666 -0.9586666666666666zm3.0399999999999996 0.42666666666666664c0.29333333333333333 0.013333333333333332 0.5933333333333333 0.02266666666666667 0.8966666666666666 0.02266666666666667 0.30666666666666664 0 0.61 -0.006666666666666666 0.9066666666666667 -0.02266666666666667 -0.29333333333333333 0.3813333333333333 -0.5966666666666667 0.73 -0.8966666666666666 1.0433333333333332 -0.30333333333333334 -0.3133333333333333 -0.6066666666666667 -0.6619999999999999 -0.9066666666666667 -1.0433333333333332z" fill="#ffffff" stroke-width="0.6667"></path>
</svg>