<svg role="img" viewBox="0 0 16 16" xmlns="http://www.w3.org/2000/svg" id="Amazondocumentdb--Streamline-Simple-Icons" height="16" width="16">
  <desc>
    Amazondocumentdb Streamline Icon: https://streamlinehq.com
  </desc>
  <title>Amazon DocumentDB</title>
  <path d="m11.003533333333332 14.063133333333333 0.47719999999999996 0.30879999999999996C10.835066666666666 15.3544 8.7298 16 6.259666666666666 16c-3.087733333333333 0 -5.417533333333333 -0.9824666666666666 -5.417533333333333 -2.2736666666666663V2.2456666666666667C0.8421333333333334 1.1507999999999998 2.750866666666666 0 6.315799999999999 0c3.5649333333333333 0 5.4736666666666665 1.1508666666666665 5.4736666666666665 2.2455999999999996v1.9368666666666665h-0.5613999999999999V3.256133333333333c-0.8140000000000001 0.6736666666666666 -2.4701999999999997 1.2069999999999999 -4.912266666666667 1.2069999999999999 -2.442133333333333 0 -4.0982666666666665 -0.5333333333333333 -4.912266666666667 -1.2069999999999999v3.1999999999999997c0.2245333333333333 0.786 2.1333333333333333 1.5719333333333332 4.827999999999999 1.5719333333333332q0.7298666666666667 0 1.4035333333333333 -0.0842l0.0842 0.5613333333333332q-0.7298 0.08426666666666667 -1.4876666666666667 0.08426666666666667c-2.1614 0 -3.957933333333333 -0.47719999999999996 -4.8280666666666665 -1.2069999999999999v3.0034666666666667c0.2245333333333333 0.7579333333333333 2.1333333333333333 1.5438666666666665 4.827999999999999 1.5438666666666665q0.7018 0 1.4035333333333333 -0.05613333333333333l0.0842 0.5333333333333333q-0.7578666666666667 0.0842 -1.4876666666666667 0.0842c-2.1614 0 -3.957933333333333 -0.4771333333333333 -4.8280666666666665 -1.2069999999999999v2.442133333333333c0 0.8140000000000001 1.9929333333333332 1.7122666666666666 4.856133333333333 1.7122666666666666 2.5262666666666664 0 4.294666666666666 -0.7017333333333333 4.7438666666666665 -1.3754666666666666zm-9.6 -11.817533333333332c0 0.786 2.021 1.6561333333333332 4.912266666666667 1.6561333333333332 2.8912 0 4.912266666666667 -0.8701333333333332 4.912266666666667 -1.6561333333333332 0 -0.8140000000000001 -2.0210666666666666 -1.6842 -4.912266666666667 -1.6842 -2.8912666666666667 0 -4.912266666666667 0.8701999999999999 -4.912266666666667 1.6842zm13.754333333333332 5.1088v6.063133333333333c0 0.1684 -0.11226666666666665 0.2806666666666666 -0.2806666666666666 0.2806666666666666h-5.333333333333333c-0.1684 0 -0.2806666666666666 -0.11226666666666665 -0.2806666666666666 -0.2806666666666666V6.147399999999999c0 -0.1404 0.11226666666666665 -0.2807333333333333 0.2806666666666666 -0.2807333333333333h3.087733333333333l-0.47719999999999996 -0.5613999999999999h-3.4526666666666666V12.014h0.2806666666666666v0.5613333333333332h-0.5613333333333332c-0.16846666666666665 0 -0.2806666666666666 -0.11226666666666665 -0.2806666666666666 -0.2806666666666666V5.024533333333333c0 -0.1403333333333333 0.1122 -0.2806666666666666 0.2806666666666666 -0.2806666666666666h3.873666666666667c0.0842 0 0.1684 0.05613333333333333 0.19646666666666668 0.11226666666666665L13.3614 5.866666666666667h0.30879999999999996q0.11226666666666665 0 0.19646666666666668 0.0842l1.2069999999999999 1.2069999999999999q0.0842 0.08426666666666667 0.0842 0.19653333333333334zm-0.5613333333333332 0.47719999999999996h-1.4035333333333333c-0.16846666666666665 0 -0.2806666666666666 -0.11233333333333334 -0.2806666666666666 -0.2806666666666666V6.427999999999999h-3.0878v6.7088h4.772zm-1.6281333333333334 0.6456c0.16846666666666665 0 0.30879999999999996 0.05613333333333333 0.393 0.1684 0.1684 0.22459999999999997 0.1403333333333333 0.5333333333333333 0.1403333333333333 0.6456 0 0.5895333333333332 0.33686666666666665 0.7018 0.36493333333333333 0.7298666666666667 0.11226666666666665 0.028 0.19646666666666668 0.1403333333333333 0.19646666666666668 0.2806666666666666 0 0.11233333333333334 -0.0842 0.22459999999999997 -0.19646666666666668 0.25266666666666665 -0.028066666666666663 0 -0.36493333333333333 0.1403333333333333 -0.36493333333333333 0.7298 0 0.33686666666666665 -0.1684 0.7017333333333333 -0.5333333333333333 0.7017333333333333h-0.19646666666666668v-0.5613333333333332h0.1403333333333333c0 -0.028133333333333333 0.028066666666666663 -0.08426666666666667 0.028066666666666663 -0.1404 0 -0.5052666666666666 0.16846666666666665 -0.8140000000000001 0.33686666666666665 -1.0105333333333333 -0.1684 -0.1684 -0.33686666666666665 -0.5052666666666666 -0.33686666666666665 -1.0105333333333333v-0.2245333333333333h-0.1684v-0.5613999999999999zm0.5053333333333333 -1.2069999999999999h0.8981999999999999L13.529799999999998 6.427999999999999h-0.05613333333333333zm-1.8246666666666667 1.2069999999999999h0.22466666666666668v0.5613333333333332h-0.16846666666666665v0.1404c0 0.5053333333333333 -0.1684 0.8140000000000001 -0.36493333333333333 1.0105333333333333 0.19653333333333334 0.19646666666666668 0.36493333333333333 0.5052666666666666 0.36493333333333333 1.0105333333333333q0 0.028066666666666663 -0.028066666666666663 0.05613333333333333v0.19646666666666668h0.19646666666666668v0.5614666666666666h-0.2245333333333333c-0.1403333333333333 0 -0.2806666666666666 -0.08426666666666667 -0.393 -0.19653333333333334 -0.1684 -0.19646666666666668 -0.1403333333333333 -0.5333333333333333 -0.11226666666666665 -0.6456 -0.028066666666666663 -0.5894666666666666 -0.33686666666666665 -0.7017333333333333 -0.393 -0.7017333333333333 -0.11226666666666665 -0.028066666666666663 -0.19646666666666668 -0.16846666666666665 -0.19646666666666668 -0.2806666666666666 0 -0.11233333333333334 0.0842 -0.22466666666666668 0.2245333333333333 -0.25266666666666665 0.028066666666666663 -0.028066666666666663 0.36493333333333333 -0.1404 0.36493333333333333 -0.7579333333333333 -0.028066666666666663 -0.3087333333333333 0.1403333333333333 -0.7017333333333333 0.5052666666666666 -0.7017333333333333z" fill="#ffffff" stroke-width="0.6667"></path>
</svg>