<svg role="img" viewBox="0 0 16 16" xmlns="http://www.w3.org/2000/svg" id="Tailwindcss--Streamline-Simple-Icons" height="16" width="16">
  <desc>
    Tailwindcss Streamline Icon: https://streamlinehq.com
  </desc>
  <title>Tailwind CSS</title>
  <path d="M8.000666666666666 3.1999999999999997c-2.1333333333333333 0 -3.466666666666667 1.0666666666666667 -4 3.1999999999999997 0.7999999999999999 -1.0666666666666667 1.7333333333333334 -1.4666666666666668 2.8 -1.2 0.6086666666666667 0.152 1.0433333333333332 0.5933333333333333 1.5253333333333332 1.0826666666666667C9.110666666666667 7.078666666666667 10.017999999999999 8 12.000666666666667 8c2.1333333333333333 0 3.466666666666667 -1.0666666666666667 4 -3.1999999999999997 -0.7999999999999999 1.0666666666666667 -1.7333333333333334 1.4666666666666668 -2.8 1.2 -0.6086666666666667 -0.152 -1.0433333333333332 -0.5933333333333333 -1.5253333333333332 -1.0826666666666667C10.891333333333332 4.121333333333333 9.984 3.1999999999999997 8.000666666666666 3.1999999999999997zm-4 4.8c-2.1333333333333333 0 -3.466666666666667 1.0666666666666667 -4 3.1999999999999997 0.7999999999999999 -1.0666666666666667 1.7333333333333334 -1.4666666666666668 2.8 -1.2 0.6086666666666667 0.152 1.0433333333333332 0.5933333333333333 1.5253333333333332 1.0826666666666667 0.7846666666666666 0.7959999999999999 1.6919999999999997 1.7173333333333334 3.674666666666666 1.7173333333333334 2.1333333333333333 0 3.466666666666667 -1.0666666666666667 4 -3.1999999999999997 -0.7999999999999999 1.0666666666666667 -1.7333333333333334 1.4666666666666668 -2.8 1.2 -0.6086666666666667 -0.152 -1.0433333333333332 -0.5933333333333333 -1.5253333333333332 -1.0826666666666667C6.891333333333333 8.921333333333333 5.984 8 4.000666666666667 8z" fill="#ffffff" stroke-width="0.6667"></path>
</svg>