<svg role="img" viewBox="0 0 16 16" xmlns="http://www.w3.org/2000/svg" id="Typescript--Streamline-Simple-Icons" height="16" width="16">
  <desc>
    Typescript Streamline Icon: https://streamlinehq.com
  </desc>
  <title>TypeScript</title>
  <path d="M0.75 0C0.33466666666666667 0 0 0.33466666666666667 0 0.75v14.5C0 15.665333333333333 0.33466666666666667 16 0.75 16h14.5c0.41533333333333333 0 0.75 -0.33466666666666667 0.75 -0.75V0.75C16 0.33466666666666667 15.665333333333333 0 15.25 0zm11.575333333333333 6.5c0.408 0 0.7693333333333332 0.024666666666666663 1.0846666666666667 0.074a4.253333333333333 4.253333333333333 0 0 1 0.8706666666666667 0.22666666666666668v1.6386666666666667a2.6333333333333333 2.6333333333333333 0 0 0 -0.42866666666666664 -0.24066666666666664 3.3953333333333333 3.3953333333333333 0 0 0 -0.478 -0.17333333333333334 3.6353333333333335 3.6353333333333335 0 0 0 -0.9506666666666665 -0.13333333333333333c-0.19999999999999998 0 -0.38199999999999995 0.018666666666666665 -0.5459999999999999 0.057333333333333326a1.4 1.4 0 0 0 -0.41533333333333333 0.16133333333333333c-0.11333333333333334 0.06933333333333333 -0.19999999999999998 0.15266666666666667 -0.262 0.24933333333333332a0.592 0.592 0 0 0 -0.09333333333333334 0.32666666666666666c0 0.13066666666666665 0.03533333333333333 0.24866666666666665 0.104 0.3526666666666667 0.06933333333333333 0.104 0.16799999999999998 0.20266666666666666 0.29533333333333334 0.296s0.282 0.184 0.46399999999999997 0.2733333333333333c0.182 0.09 0.38799999999999996 0.18266666666666667 0.6173333333333333 0.2773333333333333 0.3133333333333333 0.13133333333333333 0.5946666666666667 0.2713333333333333 0.844 0.41866666666666663 0.24933333333333332 0.148 0.46333333333333326 0.3153333333333333 0.6419999999999999 0.502 0.17866666666666667 0.186 0.31466666666666665 0.3986666666666666 0.4093333333333333 0.6379999999999999 0.09466666666666665 0.23933333333333331 0.14266666666666666 0.5173333333333333 0.14266666666666666 0.8353333333333333 0 0.438 -0.08333333333333333 0.8066666666666666 -0.24866666666666665 1.1039999999999999a2.022 2.022 0 0 1 -0.6746666666666666 0.7233333333333333 2.92 2.92 0 0 1 -0.9913333333333334 0.3973333333333333c-0.3773333333333333 0.07999999999999999 -0.7753333333333333 0.12 -1.1933333333333334 0.12a6.610666666666667 6.610666666666667 0 0 1 -1.2266666666666666 -0.10933333333333334 3.6959999999999997 3.6959999999999997 0 0 1 -1.008 -0.32866666666666666v-1.7533333333333332a3.3553333333333333 3.3553333333333333 0 0 0 2.158 0.7999999999999999c0.222 0 0.416 -0.019999999999999997 0.5813333333333333 -0.06 0.16599999999999998 -0.039999999999999994 0.304 -0.09599999999999999 0.41533333333333333 -0.16666666666666666 0.11066666666666666 -0.072 0.1933333333333333 -0.156 0.24866666666666665 -0.2533333333333333a0.6819999999999999 0.6819999999999999 0 0 0 -0.049333333333333326 -0.726 1.4133333333333333 1.4133333333333333 0 0 0 -0.358 -0.3333333333333333 3.7313333333333336 3.7313333333333336 0 0 0 -0.538 -0.296 18.479999999999997 18.479999999999997 0 0 0 -0.6713333333333332 -0.29066666666666663c-0.612 -0.2553333333333333 -1.068 -0.568 -1.3686666666666665 -0.9366666666666666 -0.3 -0.3686666666666667 -0.45066666666666666 -0.8146666666666667 -0.45066666666666666 -1.3366666666666664 0 -0.4093333333333333 0.08199999999999999 -0.7606666666666666 0.246 -1.0546666666666666 0.16399999999999998 -0.294 0.3866666666666666 -0.536 0.6693333333333333 -0.726a2.9959999999999996 2.9959999999999996 0 0 1 0.98 -0.41933333333333334 5.023999999999999 5.023999999999999 0 0 1 1.18 -0.134zm-10.075333333333333 0.12533333333333332h6.375333333333334v1.444H6.3373333333333335v6.430666666666667H4.526v-6.430666666666667H2.25z" fill="#ffffff" stroke-width="0.6667"></path>
</svg>